<svg width="41" height="28" viewBox="0 0 41 28" fill="none" xmlns="http://www.w3.org/2000/svg">
<path d="M20.3334 6.5C15.3334 6.5 11.0634 9.61 9.33337 14C11.0634 18.39 15.3334 21.5 20.3334 21.5C25.3334 21.5 29.6034 18.39 31.3334 14C29.6034 9.61 25.3334 6.5 20.3334 6.5ZM20.3334 19C17.5734 19 15.3334 16.76 15.3334 14C15.3334 11.24 17.5734 9 20.3334 9C23.0934 9 25.3334 11.24 25.3334 14C25.3334 16.76 23.0934 19 20.3334 19ZM20.3334 11C18.6734 11 17.3334 12.34 17.3334 14C17.3334 15.66 18.6734 17 20.3334 17C21.9934 17 23.3334 15.66 23.3334 14C23.3334 12.34 21.9934 11 20.3334 11Z" fill="black" fill-opacity="0.54"/>
</svg>
